<?xml version="1.0" encoding="UTF-8"?><svg xmlns="http://www.w3.org/2000/svg" xmlns:xlink="http://www.w3.org/1999/xlink"><symbol id="blocks"><title>Blocks</title><g id="id1" stroke="none" stroke-width="1" fill="none" fill-rule="evenodd" stroke-linecap="round" stroke-linejoin="round"><g id="id2" transform="translate(-467.000000, -535.000000)" stroke-width="2" stroke="#DFE6EB"><g id="id3---id1" transform="translate(326.000000, 339.000000)"><g id="Page-1" transform="translate(142.780216, 197.418059)"><polygon id="Stroke-1" points="12.2809474 24.5201442 24.4383 24.5201442 24.4383 12.3627916 12.2809474 12.3627916" /><polygon id="Stroke-3" points="0.16567665 24.5201442 12.3230292 24.5201442 12.3230292 12.3627916 0.16567665 12.3627916" /><polygon id="Stroke-4" points="6.21287438 12.3230292 18.370227 12.3230292 18.370227 0.16567665 6.21287438 0.16567665" /></g></g></g></g></symbol><symbol id="hour-glass"><title>Hour Glass</title><g id="id1" stroke="none" stroke-width="1" fill="none" fill-rule="evenodd" stroke-linecap="round" stroke-linejoin="round"><g id="id2" transform="translate(-655.000000, -535.000000)" stroke="#DFE6EB" stroke-width="2"><g id="id3---id1" transform="translate(326.000000, 339.000000)"><g id="Page-1" transform="translate(330.289083, 197.000000)"><path d="M0.164785916,0 L24.3270151,0" id="Stroke-1"></path><path d="M0.274632207,23.0700282 L24.4368614,23.0700282" id="Stroke-3"></path><polyline id="Stroke-5" points="3.24684281 0.307062075 8.95931136 11.5662245 2.80752356 23.1249678"></polyline><polyline id="Stroke-7" points="21.8243455 0.193063179 16.111877 11.4522256 22.2636648 23.0109689"></polyline></g></g></g></g></symbol><symbol id="space-ship"><title>Space Ship</title><g id="id1" stroke="none" stroke-width="1" fill="none" fill-rule="evenodd"><g id="id2" transform="translate(-1041.000000, -535.000000)" stroke="#DFE6EB" stroke-width="2"><g id="id3---id1" transform="translate(326.000000, 339.000000)"><g id="Page-1" transform="translate(716.000000, 197.000000)"><path d="M14.9303775,8.57973726 C13.691262,7.86456639 12.1070911,8.28904247 11.3915347,9.5277724 C10.6763638,10.7668879 11.1008399,12.3514444 12.3399554,13.0666152 C13.5790708,13.7821716 15.1632418,13.35731 15.8784126,12.1185801 C16.5939691,10.8794646 16.169493,9.29490813 14.9303775,8.57973726 L14.9303775,8.57973726 Z" id="Stroke-1"></path><path d="M12.9449398,26.7410679 L16.602528,24.6317957 L14.5449178,21.067893 C14.3193787,20.6769586 14.343282,20.1907966 14.6062181,19.8241511 L17.4322033,15.8855065 C19.269672,13.3247707 20.2581885,10.2520419 20.2581885,7.09989258 L20.2581885,1.34806818 C20.258574,0.460562332 19.2997438,-0.0949962821 18.5313689,0.348756643 C16.5431553,1.49649987 13.5479194,3.22601822 13.5479194,3.22601822 C10.8183185,4.80170736 8.65121579,7.19396357 7.35234212,10.0658276 L5.35449011,14.4825379 C5.16827581,14.8935202 4.7592212,15.1576129 4.30814308,15.1576129 L0.192922644,15.1576129 L0.194850329,19.3796271" id="Stroke-3" stroke-linecap="round" stroke-linejoin="round"></path><path d="M5.43552996,27.6170076 C6.37970973,27.139713 7.59106654,26.4746619 7.99665131,25.7722137 L8.03790376,25.7005039 C8.75346017,24.4610029 8.32898409,22.8764464 7.08948308,22.16089" id="Stroke-5" stroke-linecap="round"></path><path d="M3.19147412,26.3209098 C3.13287252,25.2645388 3.10318618,23.8835458 3.50838542,23.1810976 L3.5500234,23.1093878 C4.26557981,21.8698868 5.8501363,21.4454107 7.0896373,22.1609671" id="Stroke-7" stroke-linecap="round"></path></g></g></g></g></symbol><symbol id="tag"><title>Tag</title><g id="id1" stroke="none" stroke-width="1" fill="none" fill-rule="evenodd" stroke-linecap="round" stroke-linejoin="round"><g id="id2" transform="translate(-1220.000000, -544.000000)" stroke="#DFE6EB" stroke-width="2"><g id="id3---id1" transform="translate(326.000000, 339.000000)"><g id="Page-1" transform="translate(894.804948, 206.000000)"><path d="M19.6481959,2.96546624 L28.5510516,8.50374949" id="Stroke-1"></path><path d="M28.5112064,8.54898915 L19.6083507,14.0872724" id="Stroke-3"></path><path d="M9.1073537,14.107665 L0.204498003,8.56938174" id="Stroke-5"></path><path d="M0.244384104,8.52414207 L9.14723981,2.98585883" id="Stroke-7"></path><path d="M17.7837796,0.817338141 L11.2450748,16.3467628" id="Stroke-9"></path></g></g></g></g></symbol><symbol id="round-time"><title>Round Time</title><g id="id1" stroke="none" stroke-width="1" fill="none" fill-rule="evenodd" stroke-linecap="round" stroke-linejoin="round"><g id="id2" transform="translate(-846.000000, -535.000000)" stroke="#DFE6EB" stroke-width="2"><g id="id3---id1" transform="translate(326.000000, 339.000000)"><g id="Page-1" transform="translate(521.259580, 197.000000)"><polyline id="Stroke-1" points="12.2660365 3.77235792 12.2660365 12.137372 7.00679689 15.1735623"></polyline><polyline id="Stroke-2" points="22.4115444 22.7474703 18.3153549 22.7474703 18.3153549 18.6512808"></polyline><path d="M18.3154874,22.7474703 C21.93254,20.6553056 24.3659987,16.744674 24.3659987,12.2657714 C24.3659987,5.58303803 18.9487036,0.165742921 12.2659702,0.165742921 C5.58323684,0.165742921 0.16561038,5.58303803 0.16561038,12.2657714 C0.16561038,18.9485048 5.58323684,24.3661312 12.2659702,24.3661312" id="Stroke-3"></path></g></g></g></g></symbol></svg>